<?xml version="1.0" encoding="UTF-8"?> <svg xmlns="http://www.w3.org/2000/svg" id="finovo-logo-bez-claimu-barevne-na-svetle-pozadi-rgb" width="106" height="29.305" viewBox="0 0 106 29.305"><path id="Path_13" data-name="Path 13" d="M120.712,32.306a8.506,8.506,0,1,1-8.506-8.506,8.507,8.507,0,0,1,8.506,8.506" transform="translate(-55.234 -13.284)" fill="#d7ab2d"></path><g id="Group_5" data-name="Group 5"><path id="Path_14" data-name="Path 14" d="M10.936,1.44A11.971,11.971,0,0,0,9.114,1.3C4.907,1.3,2.8,3.59,2.8,8.217v2.617H0V15.7H2.851v14.4H8.319V15.7h4.44V10.788H8.319V8.357a2.093,2.093,0,0,1,.7-1.589,2.481,2.481,0,0,1,1.729-.654,4.974,4.974,0,0,1,2.01.374V1.814l-.421-.14C12.011,1.627,11.544,1.534,10.936,1.44Z" transform="translate(0 -1.3)" fill="#143558"></path><rect id="Rectangle_21" data-name="Rectangle 21" width="5.468" height="19.209" transform="translate(16.638 9.581)" fill="#143558"></rect><path id="Path_15" data-name="Path 15" d="M37.738,3a2.923,2.923,0,0,0-2.2.841,3,3,0,0,0-.841,2.2,2.923,2.923,0,0,0,.841,2.2,3,3,0,0,0,2.2.841,3.375,3.375,0,0,0,2.384-.841,3.03,3.03,0,0,0,.888-2.2,2.789,2.789,0,0,0-.888-2.2A3.224,3.224,0,0,0,37.738,3Z" transform="translate(-18.482 -2.205)" fill="#143558"></path><path id="Path_16" data-name="Path 16" d="M75.5,29.922A12.932,12.932,0,0,1,77.04,23.8a6.277,6.277,0,0,0-1.309-1.963A7.107,7.107,0,0,0,70.17,19.5a6.587,6.587,0,0,0-3.085.795,7.309,7.309,0,0,0-1.916,1.262,7.14,7.14,0,0,0-.654.795v-2.43H59v19.91h5.468V29.455A4.889,4.889,0,0,1,65.59,26a3.874,3.874,0,0,1,2.944-1.215,3.8,3.8,0,0,1,2.8,1.122,4.145,4.145,0,0,1,1.075,2.944V39.831h5.468V37.447A13.094,13.094,0,0,1,75.5,29.922Z" transform="translate(-31.425 -10.994)" fill="#143558"></path></g><g id="Group_6" data-name="Group 6" transform="translate(65.011 8.786)"><path id="Path_17" data-name="Path 17" d="M192.562,20.1a10.262,10.262,0,1,0-.14,20.518,10.05,10.05,0,0,0,10.516-10.142A10.151,10.151,0,0,0,192.562,20.1Zm-.093,14.956a4.7,4.7,0,0,1,.047-9.394,4.649,4.649,0,0,1,4.58,4.72A4.708,4.708,0,0,1,192.469,35.055Z" transform="translate(-161.949 -20.099)" fill="#143558"></path><path id="Path_18" data-name="Path 18" d="M153.916,20.3l-4.674,13.18L144.568,20.3H139.1a12.866,12.866,0,0,1,4.814,10.048,12.137,12.137,0,0,1-.28,2.617l2.711,7.244h5.7l7.478-19.91Z" transform="translate(-139.1 -20.206)" fill="#143558"></path></g></svg> 