<?xml version="1.0" encoding="UTF-8" standalone="no"?> <svg xmlns="http://www.w3.org/2000/svg" xmlns:xlink="http://www.w3.org/1999/xlink" version="1.1" x="0px" y="0px" viewBox="0 0 2400 1600" style="enable-background:new 0 0 2400 1600;" xml:space="preserve"> <style type="text/css"> .white{fill:#ffffff;} .st2{fill:#17142C;} </style> <path class="white" d="M225.70 1249.25C215.83 1249.25 206.68 1247.46 198.23 1243.88C189.78 1240.31 182.41 1235.31 176.12 1228.90C169.83 1222.49 164.93 1214.96 161.41 1206.33C157.90 1197.70 156.14 1188.26 156.14 1178.03C156.14 1167.79 157.87 1158.32 161.32 1149.63C164.77 1140.93 169.65 1133.41 175.94 1127.06C182.22 1120.71 189.59 1115.77 198.04 1112.26C206.49 1108.74 215.71 1106.98 225.70 1106.98C235.69 1106.98 244.66 1108.65 252.62 1111.98C260.57 1115.31 267.32 1119.75 272.88 1125.30C278.43 1130.85 282.37 1137.02 284.72 1143.80L259.37 1156.01C257.03 1149.35 252.93 1143.83 247.07 1139.45C241.21 1135.07 234.09 1132.88 225.70 1132.88C217.56 1132.88 210.41 1134.80 204.24 1138.62C198.07 1142.44 193.29 1147.72 189.90 1154.44C186.51 1161.16 184.81 1169.02 184.81 1178.03C184.81 1187.03 186.51 1194.92 189.90 1201.70C193.29 1208.49 198.07 1213.79 204.24 1217.62C210.41 1221.44 217.56 1223.35 225.70 1223.35C234.09 1223.35 241.21 1221.16 247.07 1216.78C252.93 1212.40 257.03 1206.88 259.37 1200.22L284.72 1212.43C282.37 1219.22 278.43 1225.38 272.88 1230.93C267.32 1236.48 260.57 1240.92 252.62 1244.25C244.66 1247.59 235.69 1249.25 225.70 1249.25ZM292.86 1247.03L292.86 1224.83L342.62 1170.07L295.26 1170.07L295.26 1146.02L379.62 1146.02L379.62 1168.22L331.33 1222.98L379.81 1222.98L379.81 1247.03ZM440.67 1249.25C429.94 1249.25 420.63 1246.88 412.73 1242.13C404.84 1237.38 398.74 1231.00 394.42 1222.98C390.10 1214.96 387.94 1206.08 387.94 1196.34C387.94 1186.23 390.20 1177.22 394.70 1169.33C399.20 1161.44 405.27 1155.21 412.92 1150.64C420.57 1146.08 429.20 1143.80 438.82 1143.80C449.55 1143.80 458.62 1146.02 466.01 1150.46C473.41 1154.90 479.06 1160.85 482.94 1168.31C486.83 1175.77 488.77 1184.19 488.77 1193.57C488.77 1195.54 488.68 1197.48 488.49 1199.39C488.31 1201.30 487.97 1202.94 487.47 1204.30L416.80 1204.30C417.54 1210.59 420.07 1215.64 424.39 1219.46C428.71 1223.29 434.26 1225.20 441.04 1225.20C445.97 1225.20 450.20 1224.21 453.71 1222.24C457.23 1220.27 459.97 1217.55 461.94 1214.10L484.14 1224.64C481.06 1232.05 475.63 1238.00 467.87 1242.50C460.09 1247.00 451.03 1249.25 440.67 1249.25ZM438.82 1166C433.39 1166 428.80 1167.54 425.04 1170.63C421.28 1173.71 418.72 1178.15 417.36 1183.94L459.35 1183.94C458.74 1178.64 456.58 1174.33 452.88 1170.99C449.18 1167.66 444.49 1166 438.82 1166ZM554.63 1249.25C544.52 1249.25 535.42 1246.94 527.34 1242.31C519.26 1237.69 512.85 1231.37 508.10 1223.35C503.35 1215.33 500.98 1206.33 500.98 1196.34C500.98 1186.35 503.32 1177.38 508.01 1169.42C512.70 1161.47 519.11 1155.21 527.25 1150.64C535.39 1146.08 544.52 1143.80 554.63 1143.80C562.15 1143.80 569.12 1145.10 575.53 1147.68C581.95 1150.28 587.44 1153.88 592 1158.51C596.56 1163.13 599.83 1168.59 601.80 1174.88L577.75 1185.24C576.03 1180.18 573.10 1176.17 568.97 1173.21C564.84 1170.25 560.06 1168.78 554.63 1168.78C547.35 1168.78 541.37 1171.37 536.68 1176.55C532.00 1181.72 529.65 1188.38 529.65 1196.52C529.65 1204.66 532.00 1211.33 536.68 1216.50C541.37 1221.68 547.35 1224.27 554.63 1224.27C560.18 1224.27 564.99 1222.80 569.06 1219.84C573.13 1216.88 576.03 1212.87 577.75 1207.81L601.80 1218.36C599.96 1224.27 596.75 1229.58 592.18 1234.26C587.62 1238.95 582.13 1242.62 575.72 1245.27C569.31 1247.92 562.28 1249.25 554.63 1249.25ZM618.08 1247.03L618.08 1106.98L645.83 1106.98L645.83 1155.45C648.67 1151.51 652.37 1148.58 656.93 1146.67C661.50 1144.76 666.62 1143.80 672.29 1143.80C679.94 1143.80 686.63 1145.40 692.36 1148.61C698.10 1151.82 702.57 1156.29 705.77 1162.02C708.98 1167.76 710.58 1174.45 710.58 1182.10L710.58 1247.03L682.83 1247.03L682.83 1188.01C682.83 1182.22 681.11 1177.56 677.65 1174.05C674.20 1170.53 669.76 1168.78 664.33 1168.78C658.91 1168.78 654.47 1170.53 651.01 1174.05C647.56 1177.56 645.83 1182.22 645.83 1188.01L645.83 1247.03ZM764.23 1247.03L764.23 1109.20L816.96 1109.20C826.46 1109.20 834.87 1110.87 842.21 1114.20C849.55 1117.53 855.32 1122.46 859.51 1129C863.70 1135.54 865.80 1143.62 865.80 1153.23C865.80 1162.61 863.64 1170.59 859.32 1177.19C855.01 1183.79 849.21 1188.75 841.93 1192.09L873.38 1247.03L841.19 1247.03L813.26 1197.08L792.91 1197.08L792.91 1247.03ZM792.91 1172.11L817.14 1172.11C823.19 1172.11 828.03 1170.38 831.67 1166.92C835.31 1163.47 837.12 1158.91 837.12 1153.23C837.12 1147.44 835.31 1142.81 831.67 1139.36C828.03 1135.91 823.19 1134.18 817.14 1134.18L792.91 1134.18ZM928.70 1249.25C917.97 1249.25 908.66 1246.88 900.76 1242.13C892.87 1237.38 886.77 1231.00 882.45 1222.98C878.13 1214.96 875.97 1206.08 875.97 1196.34C875.97 1186.23 878.23 1177.22 882.73 1169.33C887.23 1161.44 893.30 1155.21 900.95 1150.64C908.60 1146.08 917.23 1143.80 926.85 1143.80C937.58 1143.80 946.64 1146.02 954.04 1150.46C961.44 1154.90 967.09 1160.85 970.97 1168.31C974.86 1175.77 976.80 1184.19 976.80 1193.57C976.80 1195.54 976.71 1197.48 976.52 1199.39C976.34 1201.30 976.00 1202.94 975.50 1204.30L904.83 1204.30C905.57 1210.59 908.10 1215.64 912.42 1219.46C916.74 1223.29 922.29 1225.20 929.07 1225.20C934.00 1225.20 938.23 1224.21 941.74 1222.24C945.26 1220.27 948.00 1217.55 949.97 1214.10L972.17 1224.64C969.09 1232.05 963.66 1238.00 955.89 1242.50C948.12 1247.00 939.06 1249.25 928.70 1249.25ZM926.85 1166C921.42 1166 916.83 1167.54 913.07 1170.63C909.31 1173.71 906.75 1178.15 905.39 1183.94L947.38 1183.94C946.77 1178.64 944.61 1174.33 940.91 1170.99C937.21 1167.66 932.52 1166 926.85 1166ZM993.08 1284.03L993.08 1146.02L1018.98 1146.02L1018.98 1156.57C1026.13 1148.06 1036.43 1143.80 1049.87 1143.80C1059.49 1143.80 1068.19 1146.14 1075.96 1150.83C1083.73 1155.52 1089.90 1161.84 1094.46 1169.79C1099.02 1177.75 1101.30 1186.66 1101.30 1196.52C1101.30 1206.27 1099.05 1215.15 1094.55 1223.16C1090.05 1231.18 1083.91 1237.53 1076.14 1242.22C1068.37 1246.91 1059.56 1249.25 1049.69 1249.25C1044.02 1249.25 1038.68 1248.42 1033.69 1246.75C1028.69 1245.09 1024.41 1242.59 1020.83 1239.26L1020.83 1284.03ZM1046.36 1224.27C1054.01 1224.27 1060.30 1221.68 1065.23 1216.50C1070.16 1211.33 1072.63 1204.66 1072.63 1196.52C1072.63 1188.51 1070.16 1181.88 1065.23 1176.64C1060.30 1171.40 1054.01 1168.78 1046.36 1168.78C1038.84 1168.78 1032.70 1171.37 1027.95 1176.55C1023.20 1181.72 1020.83 1188.38 1020.83 1196.52C1020.83 1204.79 1023.20 1211.48 1027.95 1216.60C1032.70 1221.72 1038.84 1224.27 1046.36 1224.27ZM1153.84 1249.25C1141.51 1249.25 1132.05 1245.40 1125.45 1237.69C1118.85 1229.98 1115.55 1219.84 1115.55 1207.25L1115.55 1146.02L1143.30 1146.02L1143.30 1205.04C1143.30 1210.83 1145.03 1215.49 1148.48 1219.00C1151.93 1222.52 1156.37 1224.27 1161.80 1224.27C1167.23 1224.27 1171.67 1222.52 1175.12 1219.00C1178.57 1215.49 1180.30 1210.83 1180.30 1205.04L1180.30 1146.02L1208.05 1146.02L1208.05 1247.03L1182.15 1247.03L1182.15 1234.63C1179.56 1239.57 1175.80 1243.24 1170.86 1245.64C1165.93 1248.05 1160.26 1249.25 1153.84 1249.25ZM1285.01 1249.25C1278.84 1249.25 1273.08 1248.23 1267.71 1246.20C1262.35 1244.16 1257.88 1241.23 1254.30 1237.41L1254.30 1247.03L1228.40 1247.03L1228.40 1109.20L1256.15 1109.20L1256.15 1154.53C1263.30 1147.38 1272.98 1143.80 1285.19 1143.80C1294.81 1143.80 1303.51 1146.14 1311.28 1150.83C1319.05 1155.52 1325.22 1161.84 1329.78 1169.79C1334.34 1177.75 1336.63 1186.66 1336.63 1196.52C1336.63 1206.27 1334.37 1215.15 1329.87 1223.16C1325.37 1231.18 1319.23 1237.53 1311.46 1242.22C1303.69 1246.91 1294.88 1249.25 1285.01 1249.25ZM1281.68 1224.27C1289.33 1224.27 1295.62 1221.68 1300.55 1216.50C1305.48 1211.33 1307.95 1204.66 1307.95 1196.52C1307.95 1188.51 1305.48 1181.88 1300.55 1176.64C1295.62 1171.40 1289.33 1168.78 1281.68 1168.78C1274.16 1168.78 1268.02 1171.37 1263.27 1176.55C1258.52 1181.72 1256.15 1188.38 1256.15 1196.52C1256.15 1204.79 1258.52 1211.48 1263.27 1216.60C1268.02 1221.72 1274.16 1224.27 1281.68 1224.27ZM1352.90 1247.03L1352.90 1109.20L1380.65 1109.20L1380.65 1247.03ZM1401.00 1136.95L1401.00 1109.20L1428.75 1109.20L1428.75 1136.95ZM1401.00 1247.03L1401.00 1146.02L1428.75 1146.02L1428.75 1247.03ZM1498.68 1249.25C1488.57 1249.25 1479.48 1246.94 1471.40 1242.31C1463.32 1237.69 1456.91 1231.37 1452.16 1223.35C1447.41 1215.33 1445.03 1206.33 1445.03 1196.34C1445.03 1186.35 1447.38 1177.38 1452.06 1169.42C1456.75 1161.47 1463.16 1155.21 1471.30 1150.64C1479.44 1146.08 1488.57 1143.80 1498.68 1143.80C1506.21 1143.80 1513.18 1145.10 1519.59 1147.68C1526.00 1150.28 1531.49 1153.88 1536.05 1158.51C1540.62 1163.13 1543.89 1168.59 1545.86 1174.88L1521.81 1185.24C1520.08 1180.18 1517.15 1176.17 1513.02 1173.21C1508.89 1170.25 1504.11 1168.78 1498.68 1168.78C1491.41 1168.78 1485.43 1171.37 1480.74 1176.55C1476.05 1181.72 1473.71 1188.38 1473.71 1196.52C1473.71 1204.66 1476.05 1211.33 1480.74 1216.50C1485.43 1221.68 1491.41 1224.27 1498.68 1224.27C1504.23 1224.27 1509.04 1222.80 1513.11 1219.84C1517.18 1216.88 1520.08 1212.87 1521.81 1207.81L1545.86 1218.36C1544.01 1224.27 1540.80 1229.58 1536.24 1234.26C1531.68 1238.95 1526.19 1242.62 1519.77 1245.27C1513.36 1247.92 1506.33 1249.25 1498.68 1249.25Z"></path> <g class="jci"> <g> <rect class="white" x="1187.1" y="411.8" width="103.2" height="572.7"></rect> <path class="white" d="M396.6,411.8v368c0,55.9-45.6,101.5-101.5,101.5c-28,0-53.3-11.4-71.7-29.8l-73,73c37,37,88.2,60,144.7,60s107.7-22.9,144.7-60c37-37,60-88.2,60-144.7v-368H396.6z"></path> <path class="white" d="M751.7,827.6c-71.4-71.4-71.4-187.7,0-259.1s187.7-71.4,259.1,0l0,0l72.9-72.9l0,0c-111.8-111.8-293.1-111.8-404.9,0C567,607.4,567,788.7,678.9,900.5c111.8,111.8,293.1,111.8,404.9,0l-72.9-72.9C939.4,899,823.2,899,751.7,827.6z"></path> </g> <g> <path class="white" d="M2188,377.7c-23.7-13.4-48.3-25.6-73.8-36.3c4,26,6.7,52.3,7.9,79.1v0.2c0.7,13.1,1,26.1,1,39.2c0,7.7-0.2,15.5-0.5,23.2c-0.5,26-2.6,51.6-5.8,76.8c-2.4,20.1-5.8,40-9.8,59.8c-5.2,24.8-11.3,49-18.7,72.9c-19.3,63.1-46.4,122.7-79.9,177.9c-12,19.8-24.9,38.8-38.7,57.4c-10.7,14.8-22,29.2-34,43.1c-14.8,17.5-30.4,34.4-46.8,50.5c-13.1,13.1-26.6,25.8-40.7,37.6c-17.5,15.3-35.9,29.7-54.8,43.1c17.5,15.8,35.9,30.8,54.8,45.2c18.9-14.3,37.3-29.2,55-45c14.1-12.4,27.7-25.3,40.7-38.7c16.3-16.3,31.8-33.3,46.8-51.1c11.9-14.1,23.2-28.5,34.2-43.5c13.6-18.4,26.3-37.3,38.5-56.9c31.6-51.1,58.3-105.9,78.7-163.5c9.1-25.3,17-51.2,23.7-77.7c5.3-21,9.8-42.3,13.4-63.8c4.6-26.5,8.1-53.5,10.1-80.8c1.7-21.7,2.6-43.7,2.6-65.7v-1.2C2192,432.2,2190.6,404.7,2188,377.7z"></path> <path class="white" d="M1760.6,971c-12-13.9-23.4-28.4-34-43.1c-13.8-18.6-26.6-37.6-38.7-57.4c-33.5-55.2-60.7-114.8-79.9-177.9c-7.4-23.9-13.6-48.1-18.7-72.9c-4-19.8-7.4-39.7-9.8-59.8c-3.3-25.3-5.3-50.9-5.8-76.8c-0.3-7.7-0.5-15.5-0.5-23.2c0-13.1,0.3-26.1,1-39.2v-0.2c18.4-9.1,37.3-17.4,56.7-24.6c23.2-8.6,47.1-16,71.5-22c18.7-4.5,37.8-8.1,57.2-10.8c23.2-3.4,46.8-5.5,70.8-6.2c5.8-0.2,11.9-0.2,17.7-0.2s11.9,0,17.7,0.2c24.1,0.7,47.6,2.7,70.8,6.2c19.4,2.8,38.5,6.4,57.3,10.8c24.4,6,48.3,13.4,71.5,22c-2.2-25.8-5.8-51.2-10.7-76.3c-24.2-7.7-49-13.9-74.4-18.9c-19.4-3.8-39.2-6.7-59.3-8.8c-23.9-2.6-48-4-72.6-4c-0.2,0-0.2,0-0.3,0s-0.2,0-0.3,0c-24.6,0-48.7,1.4-72.5,4c-20.1,2.1-39.9,5-59.3,8.8c-25.4,5-50.2,11.2-74.4,18.9c-20.3,6.4-40.1,13.6-59.5,21.8h-0.2c-25.4,10.7-49.9,22.9-73.6,36.3c-2.6,27-4,54.5-4,82.2v1.2c0,22,0.9,44,2.6,65.7c2.1,27.3,5.5,54.3,10.1,80.8c3.6,21.5,8.1,42.6,13.6,63.6c6.5,26.5,14.4,52.4,23.6,77.7c20.5,57.6,47.1,112.4,78.9,163.5c12,19.6,24.8,38.5,38.5,56.9c10.8,15,22.2,29.4,34.2,43.5c14.8,17.7,30.4,34.9,46.6,51.2c19.1-13.1,37.5-27.3,55-42.3C1791,1005.4,1775.4,988.6,1760.6,971z"></path> <path class="white" d="M1848.1,789.4c14.3-22.3,27.2-45.7,38.5-70c16.2-34,29.1-70,38.7-107.1c5.5-22,10-44.5,13.1-67.6c-22.2-4.6-44.9-7.6-68.1-8.8c-7.4-0.3-14.8-0.5-22.2-0.5s-14.8,0.2-22.2,0.5c-23.2,1.2-45.9,4.1-68.1,8.8c3.1,23,7.6,45.6,13.1,67.6c9.6,37.1,22.5,73.1,38.7,107.1C1821,743.6,1833.8,767,1848.1,789.4z"></path> <path class="white" d="M1704.2,559.7c-22.5,7.6-44.4,17.2-65,28.4c4.1,23.9,9.5,47.3,15.8,70.3c17.2,61.2,42.1,119.3,73.6,172.9c11.9,20.5,24.8,40.2,38.5,59.1c10.8,15.1,22.4,29.6,34.2,43.7c14.8,17.5,30.4,34.4,46.8,50.4c16.3-16,32-32.8,46.8-50.4c11.9-14.1,23.4-28.5,34.2-43.7c13.8-18.9,26.6-38.7,38.5-59.1c31.5-53.6,56.4-111.7,73.6-172.9c6.4-23,11.7-46.4,15.8-70.3c3.4-19.1,6-38.2,7.9-57.6v-0.2c2.1-23.2,3.3-46.8,3.3-70.5v-3.6c-22.4-9.5-45.6-17.5-69.3-24.2c-18.2-5-37-9.1-55.9-12.4c-22.7-3.8-45.9-6.4-69.5-7.4c-8.4-0.3-16.8-0.5-25.4-0.5c-8.4,0-17,0.2-25.4,0.5c-23.6,1-46.8,3.6-69.5,7.6c-19.1,3.1-37.6,7.2-55.9,12.2v0.2c-23.9,6.5-46.9,14.6-69.3,24.2v3.4c0,23.7,1.2,47.3,3.3,70.5c21.3-10.5,43.7-19.4,66.9-26.8c17.7-5.5,35.9-10.1,54.5-13.8c22.2-4.5,45-7.2,68.4-8.4c8.9-0.7,17.9-0.9,27-0.9s18.1,0.2,27,0.9c23.4,1.2,46.2,4,68.4,8.4c18.6,3.6,36.8,8.3,54.5,13.8c-1.2,18.9-3.3,37.6-6,56v0.2c-3.4,23.2-8.1,45.7-13.9,67.9c-13.2,51.6-32.7,100.7-57.3,146.6c-11.7,21.8-24.6,43-38.5,63.3c-10.7,15.6-22.2,30.8-34.2,45.5c-12-14.8-23.6-29.9-34.2-45.5c-13.9-20.3-26.8-41.4-38.5-63.3c-24.6-45.9-44-95.1-57.3-146.6C1712.3,605.4,1707.7,582.9,1704.2,559.7z"></path> </g> <g> <path class="white" d="M2122.4,920.2v6.3h17.7v58h6.9v-58h17.6v-6.3H2122.4z"></path> <polygon class="white" points="2232.7,920.2 2232.7,984.5 2225.7,984.5 2225.7,933.4 2204.3,964.7 2203.7,964.7 2182.3,933.2 2182.3,984.5 2175.2,984.5 2175.2,920.2 2181.4,920.2 2204,953.2 2226.6,920.2"></polygon> </g> </g> </svg> 